<?xml version="1.0" encoding="iso-8859-1"?>
<!-- Generator: Adobe Illustrator 19.0.0, SVG Export Plug-In . SVG Version: 6.00 Build 0)  -->
<svg version="1.1" id="Layer_1" xmlns="http://www.w3.org/2000/svg" xmlns:xlink="http://www.w3.org/1999/xlink" x="0px" y="0px"
	 viewBox="0 0 491.52 491.52" style="enable-background:new 0 0 491.52 491.52;" xml:space="preserve">
<rect y="370.176" style="fill:#EBF0F3;" width="491.52" height="30.771"/>
<polygon style="fill:#D5D6DB;" points="491.235,400.984 0.285,400.984 25.708,411.204 465.812,411.204 "/>
<path style="fill:#3A556A;" d="M449.566,80.316H41.956c-8.982,0-16.263,7.281-16.263,16.262v273.597h440.134V96.578
	C465.827,87.597,458.546,80.316,449.566,80.316z"/>
<rect x="52.506" y="107.131" style="fill:#EBF0F3;" width="386.509" height="236.237"/>
<g>
	<rect x="52.506" y="329.728" style="fill:#D5D6DB;" width="386.509" height="13.65"/>
	<rect x="209.193" y="380.826" style="fill:#D5D6DB;" width="73.129" height="9.436"/>
</g>
<rect x="253.184" y="218.511" style="fill:#FCD462;" width="31.585" height="36.096"/>
<rect x="253.184" y="254.592" style="fill:#F6C358;" width="31.585" height="7.434"/>
<rect x="298.547" y="254.592" style="fill:#3A556A;" width="31.585" height="7.434"/>
<rect x="298.547" y="175.514" style="fill:#64798A;" width="31.585" height="79.058"/>
<rect x="343.962" y="254.592" style="fill:#2D93BA;" width="31.585" height="7.434"/>
<rect x="343.962" y="199.532" style="fill:#27A2DB;" width="31.585" height="55.06"/>
<rect x="389.376" y="124.59" style="fill:#44C4A1;" width="31.585" height="130.007"/>
<rect x="389.376" y="254.592" style="fill:#3EA69B;" width="31.585" height="7.434"/>
<path style="fill:#E56353;" d="M146.955,261.773c33.431,0,60.533-27.101,60.533-60.532h-60.533V261.773z"/>
<path style="fill:#44C4A1;" d="M184.059,140.707l-38.847,46.412h60.532C205.744,168.477,197.311,151.811,184.059,140.707z"/>
<path style="fill:#FCD462;" d="M131.09,124.843c-33.431,0-60.532,27.102-60.532,60.533c0,33.431,27.102,60.532,60.532,60.532
	v-60.532l38.848-46.413C159.424,130.154,145.879,124.843,131.09,124.843z"/>
<g>
	<rect x="70.554" y="277.606" style="fill:#D5D6DB;" width="135.183" height="13.404"/>
	<rect x="70.554" y="304.077" style="fill:#D5D6DB;" width="81.582" height="13.404"/>
	<rect x="252.314" y="277.606" style="fill:#D5D6DB;" width="168.627" height="13.404"/>
	<rect x="252.314" y="304.077" style="fill:#D5D6DB;" width="101.765" height="13.404"/>
</g>
<g>
</g>
<g>
</g>
<g>
</g>
<g>
</g>
<g>
</g>
<g>
</g>
<g>
</g>
<g>
</g>
<g>
</g>
<g>
</g>
<g>
</g>
<g>
</g>
<g>
</g>
<g>
</g>
<g>
</g>
</svg>
